<svg width="30" height="30" viewBox="0 0 30 30" fill="none" xmlns="http://www.w3.org/2000/svg">
<rect x="0.59375" y="0.59375" width="28.6875" height="28.6875" rx="14.3438" stroke="black" stroke-opacity="0.1" stroke-width="0.5625"/>
<path d="M10.4375 18.3125C10.4375 17.7158 10.6746 17.1435 11.0965 16.7215C11.5185 16.2996 12.0908 16.0625 12.6875 16.0625H17.1875C17.7842 16.0625 18.3565 16.2996 18.7785 16.7215C19.2004 17.1435 19.4375 17.7158 19.4375 18.3125C19.4375 18.6109 19.319 18.897 19.108 19.108C18.897 19.319 18.6109 19.4375 18.3125 19.4375H11.5625C11.2641 19.4375 10.978 19.319 10.767 19.108C10.556 18.897 10.4375 18.6109 10.4375 18.3125Z" stroke="#ADADAD" stroke-width="0.84375" stroke-linejoin="round"/>
<path d="M14.9375 13.8125C15.8695 13.8125 16.625 13.057 16.625 12.125C16.625 11.193 15.8695 10.4375 14.9375 10.4375C14.0055 10.4375 13.25 11.193 13.25 12.125C13.25 13.057 14.0055 13.8125 14.9375 13.8125Z" stroke="#ADADAD" stroke-width="0.84375"/>
</svg>
