<svg width="30" height="30" viewBox="0 0 30 30" fill="none" xmlns="http://www.w3.org/2000/svg">
<rect x="0.84375" y="0.59375" width="28.6875" height="28.6875" rx="14.3438" stroke="black" stroke-opacity="0.1" stroke-width="0.5625"/>
<g clip-path="url(#clip0_8_611)">
<path d="M12.9375 17.1875L17.8425 16.7786C19.3776 16.6509 19.7218 16.3156 19.8917 14.7851L20.25 11.5625M11.8125 11.5625H20.8125" stroke="#ADADAD" stroke-width="0.84375" stroke-linecap="round" stroke-linejoin="round"/>
<path d="M11.8125 20.5625C12.4338 20.5625 12.9375 20.0588 12.9375 19.4375C12.9375 18.8162 12.4338 18.3125 11.8125 18.3125C11.1912 18.3125 10.6875 18.8162 10.6875 19.4375C10.6875 20.0588 11.1912 20.5625 11.8125 20.5625Z" stroke="#ADADAD" stroke-width="0.84375" stroke-linecap="round" stroke-linejoin="round"/>
<path d="M18 20.5625C18.6213 20.5625 19.125 20.0588 19.125 19.4375C19.125 18.8162 18.6213 18.3125 18 18.3125C17.3787 18.3125 16.875 18.8162 16.875 19.4375C16.875 20.0588 17.3787 20.5625 18 20.5625Z" stroke="#ADADAD" stroke-width="0.84375" stroke-linecap="round" stroke-linejoin="round"/>
<path d="M12.9375 19.4375H16.875M9.5625 9.3125H10.1059C10.6374 9.3125 11.1004 9.66406 11.2292 10.1647L12.9038 16.6678C12.9453 16.8304 12.9492 17.0004 12.915 17.1647C12.8809 17.3291 12.8097 17.4835 12.7069 17.6161L12.1674 18.3125" stroke="#ADADAD" stroke-width="0.84375" stroke-linecap="round" stroke-linejoin="round"/>
</g>
<defs>
<clipPath id="clip0_8_611">
<rect width="13.5" height="13.5" fill="white" transform="translate(8.4375 8.1875)"/>
</clipPath>
</defs>
</svg>
